<svg width="186" height="40" viewBox="0 0 186 40" fill="none" xmlns="http://www.w3.org/2000/svg">
<path d="M74.695 7.37115V12.2689L65.3078 22.9486C64.7862 23.5381 63.6865 24.6945 62.0086 26.4178C64.2761 26.3044 65.9653 26.2477 67.0764 26.2477H75.1712V31.7236H53.9818V26.5878L63.8452 15.3299C64.3214 14.7631 65.2057 13.9128 66.4982 12.779H65.7839C65.081 12.8017 64.6048 12.813 64.3554 12.813C63.0176 12.8357 62.2354 12.8471 62.0086 12.8471H54.7301V7.37115H74.695ZM94.9302 31.7236H89.0462C88.8648 31.1568 88.7627 30.6012 88.7401 30.0571C87.6517 31.4855 85.7243 32.1998 82.9581 32.1998C80.8947 32.1998 79.3074 31.6556 78.1964 30.5672C77.2214 29.6149 76.7339 28.3565 76.7339 26.7919C76.7339 24.6378 77.6862 23.1186 79.5909 22.2343C80.4072 21.8715 82.0851 21.4521 84.6246 20.9759L88.638 20.2276V19.1733C88.5927 17.8808 87.697 17.2346 85.9511 17.2346C84.9988 17.2346 84.2959 17.4046 83.8424 17.7448C83.4115 18.0622 83.1281 18.6404 82.9921 19.4794H77.5162C77.7202 15.5567 80.5545 13.5953 86.0191 13.5953C88.9215 13.5953 91.0982 14.1168 92.5494 15.1599C93.2296 15.6814 93.6945 16.2709 93.9439 16.9285C94.1933 17.5634 94.318 18.5384 94.318 19.8535C94.318 20.0802 94.3067 20.7832 94.284 21.9622V22.3364L94.25 25.2614C94.25 26.055 94.25 26.5878 94.25 26.8599C94.25 27.132 94.2386 27.5628 94.216 28.1524C94.216 28.4698 94.216 28.7193 94.216 28.9006C94.216 30.1704 94.4541 31.1114 94.9302 31.7236ZM88.7061 23.6628L86.0531 24.241C84.67 24.5585 83.7517 24.8759 83.2982 25.1934C82.8447 25.5108 82.6179 25.987 82.6179 26.6219C82.6179 28.005 83.4002 28.6966 84.9647 28.6966C86.2799 28.6966 87.3002 28.2317 88.0258 27.3021C88.434 26.8033 88.6494 26.0096 88.672 24.9213L88.7061 23.6628ZM103.668 14.0715V31.7236H97.8863V14.0715H103.668ZM100.777 6.72492C101.503 6.72492 102.126 6.98568 102.648 7.50719C103.17 8.00603 103.43 8.62958 103.43 9.37785C103.43 10.1034 103.17 10.727 102.648 11.2485C102.126 11.77 101.503 12.0308 100.777 12.0308C100.029 12.0308 99.3942 11.77 98.8727 11.2485C98.3738 10.727 98.1244 10.1034 98.1244 9.37785C98.1244 8.62958 98.3738 8.00603 98.8727 7.50719C99.3942 6.98568 100.029 6.72492 100.777 6.72492ZM118.297 14.0715V17.8808H114.114V25.1593C114.114 26.7919 114.851 27.6082 116.324 27.6082C117.186 27.6082 117.866 27.4381 118.365 27.098L119.386 31.2475C118.274 31.7236 116.653 31.9617 114.522 31.9617C111.892 31.9617 110.134 31.3949 109.25 30.2611C108.865 29.7623 108.615 29.2181 108.502 28.6286C108.388 28.039 108.332 27.064 108.332 25.7035V17.8808H105.373V14.0715H108.332V10.3302L114.114 7.30312V14.0715H118.297ZM133.058 13.9694L133.023 18.7311C132.185 18.4817 131.391 18.357 130.643 18.357C127.695 18.357 126.221 20.2503 126.221 24.037V31.7236H120.439V14.0715H126.017V17.0985C126.697 14.7631 128.591 13.5953 131.697 13.5953C132.06 13.5953 132.513 13.72 133.058 13.9694ZM143.719 32.1998C140.748 32.1998 138.39 31.2248 136.644 29.2748C135.125 27.5742 134.365 25.4428 134.365 22.8806C134.365 19.9329 135.34 17.586 137.29 15.8401C138.991 14.3436 141.122 13.5953 143.685 13.5953C146.678 13.5953 149.047 14.559 150.793 16.4863C152.29 18.1416 153.038 20.2616 153.038 22.8465C153.038 25.8169 152.063 28.1751 150.113 29.921C148.412 31.4402 146.281 32.1998 143.719 32.1998ZM143.651 17.8128C142.562 17.8128 141.723 18.2549 141.134 19.1392C140.544 20.0236 140.249 21.2707 140.249 22.8806C140.249 26.2817 141.406 27.9823 143.719 27.9823C146.031 27.9823 147.188 26.2704 147.188 22.8465C147.188 19.4907 146.009 17.8128 143.651 17.8128ZM161.623 14.0715V16.4183C163.029 14.5363 164.956 13.5953 167.405 13.5953C169.763 13.5953 171.487 14.3776 172.575 15.9421C173.278 16.9852 173.629 18.5951 173.629 20.7718V31.7236H167.813V21.7241C167.813 20.7945 167.723 20.1029 167.541 19.6494C167.178 18.7651 166.374 18.323 165.126 18.323C163.766 18.323 162.814 18.8445 162.269 19.8875C161.975 20.4317 161.827 21.2366 161.827 22.3023V31.7236H156.045V14.0715H161.623ZM179.85 26.5878C180.598 26.5878 181.221 26.8486 181.72 27.3701C182.242 27.869 182.503 28.4812 182.503 29.2068C182.503 29.955 182.242 30.5899 181.72 31.1114C181.221 31.6329 180.598 31.8937 179.85 31.8937C179.124 31.8937 178.5 31.6329 177.979 31.1114C177.457 30.5899 177.197 29.955 177.197 29.2068C177.197 28.4812 177.457 27.869 177.979 27.3701C178.5 26.8486 179.124 26.5878 179.85 26.5878Z" fill="white"/>
<path d="M23.9731 35.6662C23.8721 35.3427 23.7308 35.0395 23.5289 34.7766C22.9839 34.0285 22.1158 33.5635 21.1468 33.5635C21.0459 33.5635 20.9651 33.5635 20.8642 33.5837C20.622 33.6039 20.3797 33.6646 20.1576 33.7454C19.8346 33.8668 19.552 34.0285 19.2896 34.2307C19.0675 34.4127 18.8858 34.6149 18.7243 34.8373C18.3206 35.4034 18.1187 36.0908 18.1793 36.8389C18.3206 38.3756 19.6126 39.5281 21.1266 39.5281C21.2276 39.5281 21.3083 39.5281 21.4093 39.5078C22.9637 39.3663 24.1346 38.0319 24.0942 36.475C24.0942 36.3941 24.0942 36.3335 24.0942 36.2526C24.074 36.0706 24.0336 35.8684 23.9731 35.6662Z" fill="#7E1DFA"/>
<path d="M39.7394 32.6536C39.5173 32.4716 39.2751 32.3301 39.0126 32.2087C38.6896 32.0672 38.3263 31.9863 37.9629 31.9863C37.9225 31.9863 37.9023 31.9863 37.8619 31.9863C37.761 31.9863 37.6803 31.9863 37.5793 32.0065C36.5901 32.1076 35.7625 32.6738 35.2981 33.4825C35.1165 33.7858 34.9953 34.1295 34.9348 34.4935C34.8944 34.7361 34.8742 34.9787 34.9146 35.2416C34.9146 35.282 34.9146 35.3022 34.9348 35.3427C35.1165 36.8389 36.3883 37.9307 37.8821 37.9307C37.9831 37.9307 38.0638 37.9307 38.1648 37.9105C39.7999 37.7487 40.991 36.3132 40.8295 34.6755C40.7286 33.8465 40.3248 33.1388 39.7394 32.6536Z" fill="#7E1DFA"/>
<path d="M13.0515 17.429L12.5266 12.0103C12.2844 9.38185 10.0638 7.40039 7.45958 7.40039C7.29808 7.40039 7.13658 7.40039 6.97508 7.42061L2.1301 7.88565C0.838104 8.00696 -0.110705 9.15944 0.0104199 10.4535C0.131544 11.6666 1.14092 12.5764 2.33197 12.5764C2.41272 12.5764 2.47329 12.5764 2.55404 12.5562L7.39902 12.0912C7.4192 12.0912 7.4192 12.0912 7.43939 12.0912C7.64126 12.0912 7.82295 12.2529 7.84314 12.4551L8.36801 17.8738C8.46895 18.8848 8.63045 19.8553 8.8727 20.8056C9.15532 20.5225 9.51869 20.3001 9.92244 20.1586L13.2937 19.1072C13.1928 18.5613 13.0919 17.9951 13.0515 17.429Z" fill="#7E1DFA"/>
<path d="M46.4214 14.2342L46.159 11.4238C46.0379 10.2106 45.0285 9.30078 43.8374 9.30078C43.7567 9.30078 43.6961 9.30078 43.6154 9.321C42.3234 9.44231 41.3746 10.5948 41.4957 11.8888L41.7581 14.6992C41.7985 15.1036 41.8187 15.508 41.8187 15.8922C41.8793 20.866 39.3962 25.3749 35.4798 28.0235C33.5419 29.3378 31.2607 30.2072 28.7776 30.4296C28.3133 30.47 27.849 30.4902 27.4049 30.4902C25.588 30.4902 23.8317 30.1465 22.2167 29.5197C20.6825 28.9132 19.2492 28.064 18.0177 26.9924L17.614 28.1246C17.2708 29.1356 16.3422 29.7826 15.2722 29.7826C14.2427 29.7826 13.3342 29.1558 12.9709 28.2055L12.123 26.0421L10.6897 25.3142C12.4864 28.5492 15.1915 31.1979 18.4215 32.9165C19.0877 32.4111 19.875 32.1078 20.7228 32.0269C20.8642 32.0067 21.0055 32.0067 21.1468 32.0067C23.1251 32.0067 24.8209 33.2805 25.4265 35.08C26.0725 35.1406 26.7185 35.1811 27.3847 35.1811C27.9903 35.1811 28.5959 35.1608 29.2016 35.1002C30.6551 34.9586 32.048 34.6554 33.3804 34.2105C33.5015 33.422 33.8447 32.6941 34.3493 32.0673C35.1165 31.1373 36.2066 30.5509 37.4178 30.4498C37.5591 30.4296 37.7005 30.4296 37.8418 30.4296C38.4474 30.4296 39.0328 30.5509 39.5779 30.7733C44.2816 26.8508 47.027 20.7649 46.4214 14.2342Z" fill="#7E1DFA"/>
<path d="M40.1432 14.3148C39.3155 13.7487 38.3465 13.3241 37.2362 13.0208C39.7192 11.4639 40.8497 9.13876 40.6075 6.49008C40.2037 2.16322 36.2268 -0.626996 28.3739 0.121105L18.2802 1.09162C15.454 1.35446 13.3747 3.88183 13.6371 6.71249L14.7272 18.116C14.7474 18.2979 14.7878 18.4799 14.8282 18.6417L16.968 17.9744C17.2103 17.8936 17.4525 17.8531 17.6948 17.8531C18.4821 17.8531 19.2492 18.2373 19.7135 18.9045C20.1778 19.5717 20.2989 20.3805 20.0365 21.1488L18.583 25.3544C18.6638 25.4352 18.7243 25.4959 18.8051 25.5768C21.1872 27.72 24.2355 28.9129 27.4049 28.9129C27.8087 28.9129 28.2326 28.8927 28.6363 28.8522C32.048 28.5287 35.1367 26.891 37.3169 24.2221C39.4972 21.5734 40.5267 18.2171 40.2037 14.8001L40.1432 14.3148ZM23.2261 7.42015L27.7077 6.99555C29.8678 6.79336 30.9175 7.44037 31.0386 8.81526C31.18 10.2104 30.2715 11.0191 28.1115 11.2415L23.6299 11.6661L23.2261 7.42015ZM30.433 21.9374L24.6594 22.4833L24.2355 17.9947L30.0091 17.4488C32.1288 17.2466 33.2593 17.9138 33.4006 19.3898C33.5419 20.8658 32.5527 21.7352 30.433 21.9374Z" fill="#FA381D"/>
<path d="M17.6746 19.3086C17.5736 19.3086 17.4727 19.3288 17.3516 19.349L10.3465 21.5125C9.43811 21.7955 9.33718 23.0491 10.1851 23.4737L12.87 24.8284C13.1122 24.9497 13.2939 25.1519 13.3747 25.3945L14.2629 27.6792C14.4446 28.1241 14.8483 28.3667 15.2521 28.3667C15.676 28.3667 16.1 28.1241 16.2615 27.659L18.684 20.7239C18.9262 19.996 18.3811 19.3086 17.6746 19.3086Z" fill="#FA381D"/>
</svg>
