<svg width="27" height="24" viewBox="0 0 27 24" fill="none" xmlns="http://www.w3.org/2000/svg">
<path d="M8.90123 22.7284C9.44669 22.7284 9.88888 22.2862 9.88888 21.7407C9.88888 21.1953 9.44669 20.7531 8.90123 20.7531C8.35576 20.7531 7.91357 21.1953 7.91357 21.7407C7.91357 22.2862 8.35576 22.7284 8.90123 22.7284Z" stroke="#1E1E1E" stroke-width="1.97531" stroke-linecap="round" stroke-linejoin="round"/>
<path d="M22.7284 22.7284C23.2738 22.7284 23.716 22.2862 23.716 21.7407C23.716 21.1953 23.2738 20.7531 22.7284 20.7531C22.1829 20.7531 21.7407 21.1953 21.7407 21.7407C21.7407 22.2862 22.1829 22.7284 22.7284 22.7284Z" stroke="#1E1E1E" stroke-width="1.97531" stroke-linecap="round" stroke-linejoin="round"/>
<path d="M1 1H4.95062L7.91358 17.7901H23.716" stroke="#1E1E1E" stroke-width="1.97531" stroke-linecap="round" stroke-linejoin="round"/>
<path d="M7.91354 12.5226H23.3111C23.4253 12.5227 23.536 12.4832 23.6243 12.4108C23.7127 12.3385 23.7732 12.2377 23.7956 12.1257L25.5734 3.23683C25.5878 3.16515 25.586 3.09119 25.5683 3.02027C25.5506 2.94935 25.5174 2.88324 25.471 2.82673C25.4246 2.77021 25.3663 2.72469 25.3002 2.69345C25.2341 2.66221 25.1619 2.64604 25.0888 2.64609H5.93823" stroke="#1E1E1E" stroke-width="1.97531" stroke-linecap="round" stroke-linejoin="round"/>
</svg>
