<svg width="186" height="41" viewBox="0 0 186 41" fill="none" xmlns="http://www.w3.org/2000/svg">
<path d="M74.695 7.91843V12.8161L65.3078 23.4959C64.7862 24.0854 63.6865 25.2418 62.0086 26.9651C64.2761 26.8517 65.9653 26.795 67.0764 26.795H75.1712V32.2709H53.9818V27.1351L63.8452 15.8772C64.3214 15.3103 65.2057 14.46 66.4982 13.3263H65.7839C65.081 13.349 64.6048 13.3603 64.3554 13.3603C63.0176 13.383 62.2354 13.3943 62.0086 13.3943H54.7301V7.91843H74.695ZM94.9302 32.2709H89.0462C88.8648 31.7041 88.7627 31.1485 88.7401 30.6043C87.6517 32.0328 85.7243 32.7471 82.9581 32.7471C80.8947 32.7471 79.3074 32.2029 78.1964 31.1145C77.2214 30.1622 76.7339 28.9037 76.7339 27.3392C76.7339 25.1851 77.6862 23.6659 79.5909 22.7816C80.4072 22.4188 82.0851 21.9993 84.6246 21.5232L88.638 20.7749V19.7205C88.5927 18.4281 87.697 17.7819 85.9511 17.7819C84.9988 17.7819 84.2959 17.9519 83.8424 18.292C83.4115 18.6095 83.1281 19.1877 82.9921 20.0267H77.5162C77.7202 16.104 80.5545 14.1426 86.0191 14.1426C88.9215 14.1426 91.0982 14.6641 92.5494 15.7071C93.2296 16.2287 93.6945 16.8182 93.9439 17.4758C94.1933 18.1107 94.318 19.0857 94.318 20.4008C94.318 20.6275 94.3067 21.3304 94.284 22.5095V22.8836L94.25 25.8087C94.25 26.6023 94.25 27.1351 94.25 27.4072C94.25 27.6793 94.2386 28.1101 94.216 28.6997C94.216 29.0171 94.216 29.2665 94.216 29.4479C94.216 30.7177 94.4541 31.6587 94.9302 32.2709ZM88.7061 24.2101L86.0531 24.7883C84.67 25.1058 83.7517 25.4232 83.2982 25.7406C82.8447 26.0581 82.6179 26.5343 82.6179 27.1691C82.6179 28.5523 83.4002 29.2439 84.9647 29.2439C86.2799 29.2439 87.3002 28.779 88.0258 27.8494C88.434 27.3505 88.6494 26.5569 88.672 25.4685L88.7061 24.2101ZM103.668 14.6188V32.2709H97.8863V14.6188H103.668ZM100.777 7.27221C101.503 7.27221 102.126 7.53297 102.648 8.05448C103.17 8.55332 103.43 9.17687 103.43 9.92513C103.43 10.6507 103.17 11.2743 102.648 11.7958C102.126 12.3173 101.503 12.5781 100.777 12.5781C100.029 12.5781 99.3942 12.3173 98.8727 11.7958C98.3738 11.2743 98.1244 10.6507 98.1244 9.92513C98.1244 9.17687 98.3738 8.55332 98.8727 8.05448C99.3942 7.53297 100.029 7.27221 100.777 7.27221ZM118.297 14.6188V18.4281H114.114V25.7066C114.114 27.3392 114.851 28.1555 116.324 28.1555C117.186 28.1555 117.866 27.9854 118.365 27.6453L119.386 31.7948C118.274 32.2709 116.653 32.509 114.522 32.509C111.892 32.509 110.134 31.9421 109.25 30.8084C108.865 30.3096 108.615 29.7654 108.502 29.1758C108.388 28.5863 108.332 27.6113 108.332 26.2508V18.4281H105.373V14.6188H108.332V10.8775L114.114 7.85041V14.6188H118.297ZM133.058 14.5167L133.023 19.2784C132.185 19.029 131.391 18.9043 130.643 18.9043C127.695 18.9043 126.221 20.7976 126.221 24.5842V32.2709H120.439V14.6188H126.017V17.6458C126.697 15.3103 128.591 14.1426 131.697 14.1426C132.06 14.1426 132.513 14.2673 133.058 14.5167ZM143.719 32.7471C140.748 32.7471 138.39 31.7721 136.644 29.8221C135.125 28.1215 134.365 25.9901 134.365 23.4278C134.365 20.4801 135.34 18.1333 137.29 16.3874C138.991 14.8909 141.122 14.1426 143.685 14.1426C146.678 14.1426 149.047 15.1063 150.793 17.0336C152.29 18.6889 153.038 20.8089 153.038 23.3938C153.038 26.3642 152.063 28.7223 150.113 30.4683C148.412 31.9875 146.281 32.7471 143.719 32.7471ZM143.651 18.3601C142.562 18.3601 141.723 18.8022 141.134 19.6865C140.544 20.5708 140.249 21.8179 140.249 23.4278C140.249 26.829 141.406 28.5296 143.719 28.5296C146.031 28.5296 147.188 26.8177 147.188 23.3938C147.188 20.038 146.009 18.3601 143.651 18.3601ZM161.623 14.6188V16.9656C163.029 15.0836 164.956 14.1426 167.405 14.1426C169.763 14.1426 171.487 14.9249 172.575 16.4894C173.278 17.5325 173.629 19.1423 173.629 21.3191V32.2709H167.813V22.2714C167.813 21.3418 167.723 20.6502 167.541 20.1967C167.178 19.3124 166.374 18.8702 165.126 18.8702C163.766 18.8702 162.814 19.3918 162.269 20.4348C161.975 20.979 161.827 21.7839 161.827 22.8496V32.2709H156.045V14.6188H161.623ZM179.85 27.1351C180.598 27.1351 181.221 27.3959 181.72 27.9174C182.242 28.4162 182.503 29.0285 182.503 29.754C182.503 30.5023 182.242 31.1372 181.72 31.6587C181.221 32.1802 180.598 32.441 179.85 32.441C179.124 32.441 178.5 32.1802 177.979 31.6587C177.457 31.1372 177.197 30.5023 177.197 29.754C177.197 29.0285 177.457 28.4162 177.979 27.9174C178.5 27.3959 179.124 27.1351 179.85 27.1351Z" fill="#1E1E1E"/>
<path d="M23.9731 36.2133C23.8721 35.8898 23.7308 35.5865 23.5289 35.3236C22.9839 34.5755 22.1158 34.1105 21.1468 34.1105C21.0459 34.1105 20.9651 34.1105 20.8642 34.1307C20.622 34.1509 20.3797 34.2116 20.1576 34.2925C19.8346 34.4138 19.552 34.5755 19.2896 34.7777C19.0675 34.9597 18.8858 35.1619 18.7243 35.3843C18.3206 35.9504 18.1187 36.6379 18.1793 37.386C18.3206 38.9226 19.6126 40.0751 21.1266 40.0751C21.2276 40.0751 21.3083 40.0751 21.4093 40.0549C22.9637 39.9133 24.1346 38.5789 24.0942 37.022C24.0942 36.9411 24.0942 36.8805 24.0942 36.7996C24.074 36.6176 24.0336 36.4154 23.9731 36.2133Z" fill="#7E1DFA"/>
<path d="M39.7394 33.2007C39.5173 33.0187 39.2751 32.8772 39.0126 32.7559C38.6896 32.6143 38.3263 32.5334 37.9629 32.5334C37.9225 32.5334 37.9023 32.5334 37.8619 32.5334C37.761 32.5334 37.6803 32.5334 37.5793 32.5537C36.5901 32.6548 35.7625 33.2209 35.2981 34.0297C35.1165 34.3329 34.9953 34.6767 34.9348 35.0406C34.8944 35.2832 34.8742 35.5259 34.9146 35.7887C34.9146 35.8291 34.9146 35.8494 34.9348 35.8898C35.1165 37.386 36.3883 38.4778 37.8821 38.4778C37.9831 38.4778 38.0638 38.4778 38.1648 38.4576C39.7999 38.2959 40.991 36.8603 40.8295 35.2226C40.7286 34.3936 40.3248 33.6859 39.7394 33.2007Z" fill="#7E1DFA"/>
<path d="M13.0515 17.9758L12.5266 12.5571C12.2844 9.92868 10.0638 7.94722 7.45958 7.94722C7.29808 7.94722 7.13658 7.94722 6.97508 7.96744L2.1301 8.43248C0.838104 8.55379 -0.110705 9.70627 0.0104199 11.0003C0.131544 12.2134 1.14092 13.1233 2.33197 13.1233C2.41272 13.1233 2.47329 13.1233 2.55404 13.1031L7.39902 12.638C7.4192 12.638 7.4192 12.638 7.43939 12.638C7.64126 12.638 7.82295 12.7998 7.84314 13.002L8.36801 18.4206C8.46895 19.4316 8.63045 20.4021 8.8727 21.3524C9.15532 21.0693 9.51869 20.8469 9.92244 20.7054L13.2937 19.654C13.1928 19.1081 13.0919 18.542 13.0515 17.9758Z" fill="#7E1DFA"/>
<path d="M46.4214 14.7812L46.159 11.9707C46.0379 10.7576 45.0285 9.84775 43.8374 9.84775C43.7567 9.84775 43.6961 9.84775 43.6154 9.86796C42.3234 9.98928 41.3746 11.1418 41.4957 12.4358L41.7581 15.2462C41.7985 15.6506 41.8187 16.055 41.8187 16.4391C41.8793 21.413 39.3962 25.9218 35.4798 28.5705C33.5419 29.8847 31.2607 30.7542 28.7776 30.9766C28.3133 31.017 27.849 31.0372 27.4049 31.0372C25.588 31.0372 23.8317 30.6935 22.2167 30.0667C20.6825 29.4601 19.2492 28.6109 18.0177 27.5393L17.614 28.6716C17.2708 29.6825 16.3422 30.3296 15.2722 30.3296C14.2427 30.3296 13.3342 29.7028 12.9709 28.7525L12.123 26.589L10.6897 25.8612C12.4864 29.0962 15.1915 31.7449 18.4215 33.4635C19.0877 32.958 19.875 32.6547 20.7228 32.5739C20.8642 32.5536 21.0055 32.5536 21.1468 32.5536C23.1251 32.5536 24.8209 33.8274 25.4265 35.6269C26.0725 35.6876 26.7185 35.728 27.3847 35.728C27.9903 35.728 28.5959 35.7078 29.2016 35.6471C30.6551 35.5056 32.048 35.2023 33.3804 34.7575C33.5015 33.969 33.8447 33.2411 34.3493 32.6143C35.1165 31.6842 36.2066 31.0979 37.4178 30.9968C37.5591 30.9766 37.7005 30.9766 37.8418 30.9766C38.4474 30.9766 39.0328 31.0979 39.5779 31.3203C44.2816 27.3978 47.027 21.3119 46.4214 14.7812Z" fill="#7E1DFA"/>
<path d="M40.1432 14.8621C39.3155 14.296 38.3465 13.8714 37.2362 13.5681C39.7192 12.0112 40.8497 9.68603 40.6075 7.03735C40.2037 2.71049 36.2268 -0.0797246 28.3739 0.668377L18.2802 1.63889C15.454 1.90173 13.3747 4.4291 13.6371 7.25976L14.7272 18.6632C14.7474 18.8452 14.7878 19.0272 14.8282 19.1889L16.968 18.5217C17.2103 18.4408 17.4525 18.4004 17.6948 18.4004C18.4821 18.4004 19.2492 18.7846 19.7135 19.4518C20.1778 20.119 20.2989 20.9278 20.0365 21.6961L18.583 25.9016C18.6638 25.9825 18.7243 26.0432 18.8051 26.124C21.1872 28.2673 24.2355 29.4602 27.4049 29.4602C27.8087 29.4602 28.2326 29.44 28.6363 29.3995C32.048 29.076 35.1367 27.4383 37.3169 24.7694C39.4972 22.1207 40.5267 18.7643 40.2037 15.3473L40.1432 14.8621ZM23.2261 7.96742L27.7077 7.54282C29.8678 7.34063 30.9175 7.98764 31.0386 9.36253C31.18 10.7576 30.2715 11.5664 28.1115 11.7888L23.6299 12.2134L23.2261 7.96742ZM30.433 22.4846L24.6594 23.0305L24.2355 18.5419L30.0091 17.996C32.1288 17.7938 33.2593 18.4611 33.4006 19.937C33.5419 21.413 32.5527 22.2824 30.433 22.4846Z" fill="#FA381D"/>
<path d="M17.6746 19.8562C17.5736 19.8562 17.4727 19.8764 17.3516 19.8966L10.3465 22.06C9.43811 22.3431 9.33718 23.5967 10.1851 24.0213L12.87 25.376C13.1122 25.4973 13.2939 25.6995 13.3747 25.9421L14.2629 28.2268C14.4446 28.6716 14.8483 28.9143 15.2521 28.9143C15.676 28.9143 16.1 28.6716 16.2615 28.2066L18.684 21.2715C18.9262 20.5436 18.3811 19.8562 17.6746 19.8562Z" fill="#FA381D"/>
</svg>
