<svg width="51" height="46" viewBox="0 0 51 46" fill="none" xmlns="http://www.w3.org/2000/svg">
<path d="M7.26496 9.89744H9.89744C11.2938 9.89744 12.633 9.34274 13.6203 8.35537C14.6077 7.368 15.1624 6.02883 15.1624 4.63248C15.1624 3.9343 15.4397 3.26472 15.9334 2.77104C16.4271 2.27735 17.0967 2 17.7949 2H33.5897C34.2879 2 34.9575 2.27735 35.4512 2.77104C35.9449 3.26472 36.2222 3.9343 36.2222 4.63248C36.2222 6.02883 36.7769 7.368 37.7643 8.35537C38.7517 9.34274 40.0908 9.89744 41.4872 9.89744H44.1197C45.516 9.89744 46.8552 10.4521 47.8425 11.4395C48.8299 12.4269 49.3846 13.766 49.3846 15.1624V38.8547C49.3846 40.2511 48.8299 41.5902 47.8425 42.5776C46.8552 43.565 45.516 44.1197 44.1197 44.1197H7.26496C5.8686 44.1197 4.52944 43.565 3.54207 42.5776C2.5547 41.5902 2 40.2511 2 38.8547V15.1624C2 13.766 2.5547 12.4269 3.54207 11.4395C4.52944 10.4521 5.8686 9.89744 7.26496 9.89744" stroke="black" stroke-width="2.25641" stroke-linecap="round" stroke-linejoin="round"/>
<path d="M25.6924 33.5897C30.054 33.5897 33.5898 30.0539 33.5898 25.6922C33.5898 21.3306 30.054 17.7948 25.6924 17.7948C21.3307 17.7948 17.7949 21.3306 17.7949 25.6922C17.7949 30.0539 21.3307 33.5897 25.6924 33.5897Z" stroke="black" stroke-width="2.25641" stroke-linecap="round" stroke-linejoin="round"/>
</svg>
