<svg width="42" height="42" viewBox="0 0 42 42" fill="none" xmlns="http://www.w3.org/2000/svg">
<path d="M10.8822 41.0833C7.87592 41.0833 5.31022 40.0232 3.18517 37.903C1.06172 35.7828 0 33.2179 0 30.2083V6.15283C0 4.44344 0.602556 2.99022 1.80767 1.79317C3.01278 0.597722 4.45472 0 6.1335 0C7.81389 0 9.22522 0.579999 10.3675 1.74C11.5114 2.89678 12.0833 4.33067 12.0833 6.04167C12.0833 7.72366 11.4896 9.15111 10.3022 10.324C9.11325 11.4969 7.69305 12.0833 6.04167 12.0833H2.41667V30.2083C2.41667 32.5573 3.23994 34.5551 4.8865 36.2017C6.53144 37.845 8.52922 38.6667 10.8798 38.6667C13.2321 38.6667 15.229 37.845 16.8707 36.2017C18.5125 34.5535 19.3333 32.5557 19.3333 30.2083V10.875C19.3333 7.86544 20.3926 5.30055 22.5112 3.18033C24.6315 1.06011 27.1947 0 30.2011 0C33.2074 0 35.7731 1.06011 37.8982 3.18033C40.0216 5.30217 41.0833 7.86705 41.0833 10.875V35.0417C41.0833 36.7237 40.4711 38.1511 39.2467 39.324C38.0206 40.4969 36.5819 41.0833 34.9305 41.0833C33.2791 41.0833 31.8774 40.4896 30.7255 39.3022C29.5752 38.1132 29 36.685 29 35.0175C29 33.3516 29.5945 31.9322 30.7835 30.7593C31.9709 29.5864 33.3903 29 35.0417 29H38.6667V10.875C38.6667 8.526 37.8434 6.52822 36.1968 4.88167C34.5519 3.23833 32.5541 2.41667 30.2035 2.41667C27.8513 2.41667 25.8543 3.23833 24.2126 4.88167C22.5709 6.52983 21.75 8.52761 21.75 10.875V30.2083C21.75 33.2179 20.6907 35.7828 18.5721 37.903C16.4519 40.0232 13.8886 41.0833 10.8822 41.0833ZM2.41667 9.66666H6.04167C7.03572 9.66666 7.8888 9.31141 8.60091 8.60091C9.31141 7.8888 9.66666 7.03572 9.66666 6.04167C9.66666 5.04761 9.31141 4.19453 8.60091 3.48242C7.8888 2.77192 7.03572 2.41667 6.04167 2.41667C5.04761 2.41667 4.19453 2.77192 3.48242 3.48242C2.77192 4.19453 2.41667 5.04761 2.41667 6.04167V9.66666ZM35.0417 38.6667C36.0357 38.6667 36.8888 38.3114 37.6009 37.6009C38.3114 36.8888 38.6667 36.0357 38.6667 35.0417V31.4167H35.0417C34.0476 31.4167 33.1945 31.7719 32.4824 32.4824C31.7719 33.1945 31.4167 34.0476 31.4167 35.0417C31.4167 36.0357 31.7719 36.8888 32.4824 37.6009C33.1945 38.3114 34.0476 38.6667 35.0417 38.6667Z" fill="black"/>
</svg>
