<svg width="38" height="52" viewBox="0 0 38 52" fill="none" xmlns="http://www.w3.org/2000/svg">
<path d="M18.7908 36.5625C21.649 36.5588 24.3891 35.4217 26.4102 33.4006C28.4312 31.3796 29.5683 28.6395 29.572 25.7812V10.7812C29.572 7.92188 28.4361 5.17963 26.4143 3.15775C24.3924 1.13588 21.6501 0 18.7908 0C15.9314 0 13.1892 1.13588 11.1673 3.15775C9.1454 5.17963 8.00952 7.92188 8.00952 10.7812V25.7812C8.01324 28.6395 9.15032 31.3796 11.1714 33.4006C13.1925 35.4217 15.9325 36.5588 18.7908 36.5625ZM10.822 10.7812C10.822 8.66781 11.6616 6.64092 13.156 5.14649C14.6504 3.65206 16.6773 2.8125 18.7908 2.8125C20.9042 2.8125 22.9311 3.65206 24.4255 5.14649C25.92 6.64092 26.7595 8.66781 26.7595 10.7812V25.7812C26.7595 27.8947 25.92 29.9216 24.4255 31.416C22.9311 32.9104 20.9042 33.75 18.7908 33.75C16.6773 33.75 14.6504 32.9104 13.156 31.416C11.6616 29.9216 10.822 27.8947 10.822 25.7812V10.7812ZM20.197 44.0039V50.1562C20.197 50.5292 20.0489 50.8869 19.7851 51.1506C19.5214 51.4143 19.1637 51.5625 18.7908 51.5625C18.4178 51.5625 18.0601 51.4143 17.7964 51.1506C17.5327 50.8869 17.3845 50.5292 17.3845 50.1562V44.0039C12.7957 43.6449 8.51055 41.5701 5.38311 38.1929C2.25566 34.8157 0.515544 30.3841 0.509521 25.7812C0.509521 25.4083 0.657679 25.0506 0.921402 24.7869C1.18513 24.5232 1.54281 24.375 1.91577 24.375C2.28873 24.375 2.64642 24.5232 2.91014 24.7869C3.17386 25.0506 3.32202 25.4083 3.32202 25.7812C3.32202 29.8838 4.95176 33.8184 7.85271 36.7193C10.7537 39.6203 14.6882 41.25 18.7908 41.25C22.8933 41.25 26.8279 39.6203 29.7288 36.7193C32.6298 33.8184 34.2595 29.8838 34.2595 25.7812C34.2595 25.4083 34.4077 25.0506 34.6714 24.7869C34.9351 24.5232 35.2928 24.375 35.6658 24.375C36.0387 24.375 36.3964 24.5232 36.6601 24.7869C36.9239 25.0506 37.072 25.4083 37.072 25.7812C37.066 30.3841 35.3259 34.8157 32.1984 38.1929C29.071 41.5701 24.7859 43.6449 20.197 44.0039Z" fill="black"/>
</svg>
