<svg width="61" height="47" viewBox="0 0 61 47" fill="none" xmlns="http://www.w3.org/2000/svg">
<path d="M27.0095 2L24.4345 2.87C21.2369 3.94955 17.8845 4.50012 14.5095 4.5M14.5095 4.5C11.1345 4.5 7.78452 3.95 4.58452 2.87L2.00952 2M14.5095 4.5V13.25M59.5095 2L56.9345 2.87C53.7369 3.94955 50.3845 4.50012 47.0095 4.5M47.0095 4.5C43.6345 4.5 40.2845 3.95 37.0845 2.87L34.5095 2M47.0095 4.5V13.25M13.2595 33.25C8.25952 33.25 2.00952 39.5 2.00952 47M48.2595 33.25C53.2595 33.25 59.5095 39.5 59.5095 47M2.00952 13.25V23.25C15.7595 23.25 23.2595 38.25 23.2595 38.25H38.2595C38.2595 38.25 45.7595 23.25 59.5095 23.25V13.25H2.00952ZM30.7595 30.75C29.4334 30.75 28.1617 30.2232 27.224 29.2855C26.2863 28.3479 25.7595 27.0761 25.7595 25.75C25.7595 24.4239 26.2863 23.1521 27.224 22.2145C28.1617 21.2768 29.4334 20.75 30.7595 20.75C32.0856 20.75 33.3574 21.2768 34.2951 22.2145C35.2327 23.1521 35.7595 24.4239 35.7595 25.75C35.7595 27.0761 35.2327 28.3479 34.2951 29.2855C33.3574 30.2232 32.0856 30.75 30.7595 30.75Z" stroke="black" stroke-width="2.26"/>
</svg>
