<svg width="51" height="44" viewBox="0 0 51 44" fill="none" xmlns="http://www.w3.org/2000/svg">
<path d="M46.0103 9.375H41.6345V0.9375C41.6345 0.68886 41.5358 0.450403 41.3599 0.274588C41.1841 0.0987722 40.9457 0 40.697 0H10.697C10.4484 0 10.2099 0.0987722 10.0341 0.274588C9.85829 0.450403 9.75952 0.68886 9.75952 0.9375V9.375H5.38374C2.62749 9.375 0.384521 11.4844 0.384521 14.0625V32.8125C0.384521 33.0611 0.483294 33.2996 0.659109 33.4754C0.834924 33.6512 1.07338 33.75 1.32202 33.75H9.75952V42.1875C9.75952 42.4361 9.85829 42.6746 10.0341 42.8504C10.2099 43.0262 10.4484 43.125 10.697 43.125H40.697C40.9457 43.125 41.1841 43.0262 41.3599 42.8504C41.5358 42.6746 41.6345 42.4361 41.6345 42.1875V33.75H50.072C50.3207 33.75 50.5591 33.6512 50.7349 33.4754C50.9108 33.2996 51.0095 33.0611 51.0095 32.8125V14.0625C51.0095 11.4844 48.7666 9.375 46.0103 9.375ZM11.6345 1.875H39.7595V9.375H11.6345V1.875ZM39.7595 41.25H11.6345V28.125H39.7595V41.25ZM49.1345 31.875H41.6345V27.1875C41.6345 26.9389 41.5358 26.7004 41.3599 26.5246C41.1841 26.3488 40.9457 26.25 40.697 26.25H10.697C10.4484 26.25 10.2099 26.3488 10.0341 26.5246C9.85829 26.7004 9.75952 26.9389 9.75952 27.1875V31.875H2.25952V14.0625C2.25952 12.5109 3.66577 11.25 5.38374 11.25H46.0103C47.7283 11.25 49.1345 12.5109 49.1345 14.0625V31.875ZM41.6345 18.75C41.6345 19.1208 41.5246 19.4834 41.3185 19.7917C41.1125 20.1 40.8197 20.3404 40.4771 20.4823C40.1344 20.6242 39.7574 20.6613 39.3937 20.589C39.03 20.5166 38.6959 20.338 38.4337 20.0758C38.1715 19.8136 37.9929 19.4795 37.9205 19.1158C37.8482 18.7521 37.8853 18.3751 38.0272 18.0325C38.1692 17.6899 38.4095 17.397 38.7178 17.191C39.0262 16.985 39.3887 16.875 39.7595 16.875C40.2568 16.875 40.7337 17.0725 41.0853 17.4242C41.437 17.7758 41.6345 18.2527 41.6345 18.75Z" fill="black"/>
</svg>
