<svg width="49" height="42" viewBox="0 0 49 42" fill="none" xmlns="http://www.w3.org/2000/svg">
<path d="M0.894165 7.5C0.894165 5.51088 1.68434 3.60322 3.09086 2.1967C4.49739 0.790176 6.40504 0 8.39417 0H11.3942C11.792 0 12.1735 0.158036 12.4548 0.43934C12.7361 0.720645 12.8942 1.10218 12.8942 1.5C12.8942 1.89782 12.7361 2.27936 12.4548 2.56066C12.1735 2.84196 11.792 3 11.3942 3H8.39417C7.20069 3 6.0561 3.47411 5.21218 4.31802C4.36827 5.16193 3.89417 6.30653 3.89417 7.5V10.5C3.89417 10.8978 3.73613 11.2794 3.45482 11.5607C3.17352 11.842 2.79199 12 2.39417 12C1.99634 12 1.61481 11.842 1.33351 11.5607C1.0522 11.2794 0.894165 10.8978 0.894165 10.5V7.5ZM36.8942 1.5C36.8942 1.10218 37.0522 0.720645 37.3335 0.43934C37.6148 0.158036 37.9963 0 38.3942 0H41.3942C43.3833 0 45.2909 0.790176 46.6975 2.1967C48.104 3.60322 48.8942 5.51088 48.8942 7.5V10.5C48.8942 10.8978 48.7361 11.2794 48.4548 11.5607C48.1735 11.842 47.792 12 47.3942 12C46.9963 12 46.6148 11.842 46.3335 11.5607C46.0522 11.2794 45.8942 10.8978 45.8942 10.5V7.5C45.8942 6.30653 45.4201 5.16193 44.5761 4.31802C43.7322 3.47411 42.5876 3 41.3942 3H38.3942C37.9963 3 37.6148 2.84196 37.3335 2.56066C37.0522 2.27936 36.8942 1.89782 36.8942 1.5ZM2.39417 30C2.79199 30 3.17352 30.158 3.45482 30.4393C3.73613 30.7206 3.89417 31.1022 3.89417 31.5V34.5C3.89417 35.6935 4.36827 36.8381 5.21218 37.682C6.0561 38.5259 7.20069 39 8.39417 39H11.3942C11.792 39 12.1735 39.158 12.4548 39.4393C12.7361 39.7206 12.8942 40.1022 12.8942 40.5C12.8942 40.8978 12.7361 41.2794 12.4548 41.5607C12.1735 41.842 11.792 42 11.3942 42H8.39417C6.40504 42 4.49739 41.2098 3.09086 39.8033C1.68434 38.3968 0.894165 36.4891 0.894165 34.5V31.5C0.894165 31.1022 1.0522 30.7206 1.33351 30.4393C1.61481 30.158 1.99634 30 2.39417 30ZM47.3942 30C47.792 30 48.1735 30.158 48.4548 30.4393C48.7361 30.7206 48.8942 31.1022 48.8942 31.5V34.5C48.8942 36.4891 48.104 38.3968 46.6975 39.8033C45.2909 41.2098 43.3833 42 41.3942 42H38.3942C37.9963 42 37.6148 41.842 37.3335 41.5607C37.0522 41.2794 36.8942 40.8978 36.8942 40.5C36.8942 40.1022 37.0522 39.7206 37.3335 39.4393C37.6148 39.158 37.9963 39 38.3942 39H41.3942C42.5876 39 43.7322 38.5259 44.5761 37.682C45.4201 36.8381 45.8942 35.6935 45.8942 34.5V31.5C45.8942 31.1022 46.0522 30.7206 46.3335 30.4393C46.6148 30.158 46.9963 30 47.3942 30ZM11.3942 9C11.792 9 12.1735 9.15804 12.4548 9.43934C12.7361 9.72064 12.8942 10.1022 12.8942 10.5V31.5C12.8942 31.8978 12.7361 32.2794 12.4548 32.5607C12.1735 32.842 11.792 33 11.3942 33C10.9963 33 10.6148 32.842 10.3335 32.5607C10.0522 32.2794 9.89417 31.8978 9.89417 31.5V10.5C9.89417 10.1022 10.0522 9.72064 10.3335 9.43934C10.6148 9.15804 10.9963 9 11.3942 9ZM21.8942 10.5C21.8942 10.1022 21.7361 9.72064 21.4548 9.43934C21.1735 9.15804 20.792 9 20.3942 9C19.9963 9 19.6148 9.15804 19.3335 9.43934C19.0522 9.72064 18.8942 10.1022 18.8942 10.5V31.5C18.8942 31.8978 19.0522 32.2794 19.3335 32.5607C19.6148 32.842 19.9963 33 20.3942 33C20.792 33 21.1735 32.842 21.4548 32.5607C21.7361 32.2794 21.8942 31.8978 21.8942 31.5V10.5ZM29.3942 9C29.792 9 30.1735 9.15804 30.4548 9.43934C30.7361 9.72064 30.8942 10.1022 30.8942 10.5V31.5C30.8942 31.8978 30.7361 32.2794 30.4548 32.5607C30.1735 32.842 29.792 33 29.3942 33C28.9963 33 28.6148 32.842 28.3335 32.5607C28.0522 32.2794 27.8942 31.8978 27.8942 31.5V10.5C27.8942 10.1022 28.0522 9.72064 28.3335 9.43934C28.6148 9.15804 28.9963 9 29.3942 9ZM39.8942 10.5C39.8942 10.1022 39.7361 9.72064 39.4548 9.43934C39.1735 9.15804 38.792 9 38.3942 9C37.9963 9 37.6148 9.15804 37.3335 9.43934C37.0522 9.72064 36.8942 10.1022 36.8942 10.5V31.5C36.8942 31.8978 37.0522 32.2794 37.3335 32.5607C37.6148 32.842 37.9963 33 38.3942 33C38.792 33 39.1735 32.842 39.4548 32.5607C39.7361 32.2794 39.8942 31.8978 39.8942 31.5V10.5Z" fill="black"/>
</svg>
