<svg width="38" height="38" viewBox="0 0 38 38" fill="none" xmlns="http://www.w3.org/2000/svg">
<path d="M6.94685 32.875L7.59997 31.8092L7.59997 31.8092L6.94685 32.875ZM4.33322 30.2614L5.39903 29.6082L5.39903 29.6082L4.33322 30.2614ZM33.6667 30.2614L32.6009 29.6082L32.6009 29.6082L33.6667 30.2614ZM31.0531 32.875L30.4 31.8092L30.4 31.8092L31.0531 32.875ZM33.5833 13.3452V20.5833H36.0833V13.3452H33.5833ZM21.375 32.7916H16.625V35.2916H21.375V32.7916ZM4.41663 20.5833V13.3452H1.91663V20.5833H4.41663ZM24.875 4.35409V4.63682H27.375V4.35409H24.875ZM13.125 4.63682V4.35409H10.625V4.63682H13.125ZM13.125 4.35409C13.125 3.51415 13.8059 2.83325 14.6458 2.83325V0.333252C12.4251 0.333252 10.625 2.13344 10.625 4.35409H13.125ZM23.3541 2.83325C24.1941 2.83325 24.875 3.51415 24.875 4.35409H27.375C27.375 2.13344 25.5748 0.333252 23.3541 0.333252V2.83325ZM9.38686 8.37492C11.4514 8.37492 13.125 6.70132 13.125 4.63682H10.625C10.625 5.3206 10.0706 5.87492 9.38686 5.87492V8.37492ZM16.625 32.7916C14.0093 32.7916 12.1353 32.7903 10.6745 32.6514C9.23231 32.5142 8.32241 32.2519 7.59997 31.8092L6.29372 33.9408C7.47499 34.6647 8.81268 34.9856 10.4379 35.1401C12.0445 35.2929 14.0577 35.2916 16.625 35.2916V32.7916ZM1.91663 20.5833C1.91663 23.1505 1.91531 25.1637 2.06806 26.7703C2.22259 28.3955 2.54354 29.7332 3.26742 30.9145L5.39903 29.6082C4.95631 28.8858 4.69396 27.9759 4.55684 26.5337C4.41794 25.0729 4.41663 23.1989 4.41663 20.5833H1.91663ZM7.59997 31.8092C6.70293 31.2595 5.94873 30.5053 5.39903 29.6082L3.26742 30.9145C4.02327 32.1479 5.0603 33.1849 6.29372 33.9408L7.59997 31.8092ZM33.5833 20.5833C33.5833 23.1989 33.582 25.0729 33.4431 26.5337C33.306 27.9759 33.0436 28.8858 32.6009 29.6082L34.7325 30.9145C35.4564 29.7332 35.7773 28.3955 35.9319 26.7703C36.0846 25.1637 36.0833 23.1505 36.0833 20.5833H33.5833ZM21.375 35.2916C23.9422 35.2916 25.9554 35.2929 27.562 35.1401C29.1872 34.9856 30.5249 34.6647 31.7062 33.9408L30.4 31.8092C29.6775 32.2519 28.7676 32.5142 27.3254 32.6514C25.8646 32.7903 23.9906 32.7916 21.375 32.7916V35.2916ZM32.6009 29.6082C32.0512 30.5053 31.297 31.2595 30.4 31.8092L31.7062 33.9408C32.9396 33.1849 33.9767 32.1479 34.7325 30.9145L32.6009 29.6082ZM36.0833 13.3452C36.0833 9.21946 32.7388 5.87492 28.6131 5.87492V8.37492C31.358 8.37492 33.5833 10.6002 33.5833 13.3452H36.0833ZM28.6131 5.87492C27.9293 5.87492 27.375 5.3206 27.375 4.63682H24.875C24.875 6.70132 26.5486 8.37492 28.6131 8.37492V5.87492ZM4.41663 13.3452C4.41663 10.6002 6.64188 8.37492 9.38686 8.37492V5.87492C5.26117 5.87492 1.91663 9.21946 1.91663 13.3452H4.41663ZM11.4166 19.7916C11.4166 23.9797 14.8118 27.3749 19 27.3749V24.8749C16.1925 24.8749 13.9166 22.599 13.9166 19.7916H11.4166ZM19 27.3749C23.1881 27.3749 26.5833 23.9797 26.5833 19.7916H24.0833C24.0833 22.599 21.8074 24.8749 19 24.8749V27.3749ZM26.5833 19.7916C26.5833 15.6034 23.1881 12.2083 19 12.2083V14.7083C21.8074 14.7083 24.0833 16.9841 24.0833 19.7916H26.5833ZM19 12.2083C14.8118 12.2083 11.4166 15.6034 11.4166 19.7916H13.9166C13.9166 16.9841 16.1925 14.7083 19 14.7083V12.2083ZM14.6458 2.83325H23.3541V0.333252H14.6458V2.83325Z" fill="#131313"/>
<path d="M26.9166 13.4583C26.9166 14.3328 27.6255 15.0417 28.5 15.0417C29.3744 15.0417 30.0833 14.3328 30.0833 13.4583C30.0833 12.5839 29.3744 11.875 28.5 11.875C27.6255 11.875 26.9166 12.5839 26.9166 13.4583Z" fill="#131313"/>
</svg>
