<svg width="38" height="38" viewBox="0 0 38 38" fill="none" xmlns="http://www.w3.org/2000/svg">
<path d="M11.0834 34.5813L11.7167 33.9479C11.8115 33.8532 11.8589 33.8058 11.8984 33.7651C14.8839 30.6928 14.8839 25.803 11.8984 22.7307C11.8589 22.6901 11.8115 22.6427 11.7167 22.5479L11.0834 21.9146M26.9167 34.5813L26.2834 33.9479C26.1886 33.8532 26.1412 33.8058 26.1017 33.7651C23.1162 30.6928 23.1162 25.803 26.1017 22.7307C26.1412 22.6901 26.1886 22.6427 26.2834 22.5479L26.9167 21.9146M3.97279 23.594C4.22147 23.5313 4.48186 23.4979 4.75004 23.4979C6.49894 23.4979 7.91671 24.9157 7.91671 26.6646V29.8313C7.91671 31.5802 6.49894 32.9979 4.75004 32.9979C3.00114 32.9979 1.58337 31.5802 1.58337 29.8313V26.6646C1.58337 25.1839 2.59968 23.9405 3.97279 23.594ZM3.97279 23.594L3.79463 22.4063C2.56247 14.1919 8.07724 6.48389 16.2496 4.99801C18.0683 4.66733 19.9318 4.66733 21.7505 4.99801C29.9228 6.48389 35.4376 14.1919 34.2054 22.4063L34.0273 23.594M34.0273 23.594C33.7786 23.5313 33.5182 23.4979 33.25 23.4979C31.5011 23.4979 30.0834 24.9157 30.0834 26.6646V29.8313C30.0834 31.5802 31.5011 32.9979 33.25 32.9979C34.9989 32.9979 36.4167 31.5802 36.4167 29.8313V26.6646C36.4167 25.1839 35.4004 23.9405 34.0273 23.594Z" stroke="#131313" stroke-width="2.5" stroke-linecap="round"/>
</svg>
