<svg width="19" height="15" viewBox="0 0 19 15" fill="none" xmlns="http://www.w3.org/2000/svg">
<path d="M0.63343 7.49999L0.0456967 7.26439C-0.0149067 7.41561 -0.0149067 7.58437 0.0456967 7.73559L0.63343 7.49999ZM18.3668 7.49999L18.9545 7.73559C19.0151 7.58437 19.0151 7.41561 18.9545 7.26439L18.3668 7.49999ZM9.5001 13.2C6.56903 13.2 4.5107 11.7408 3.16296 10.2436C2.42652 9.41982 1.80876 8.49721 1.32756 7.50252C1.29231 7.42719 1.25853 7.35117 1.22623 7.27453L1.22116 7.26566L0.63343 7.49999L0.0456967 7.73559V7.73813L0.0494967 7.74319C0.0600436 7.76997 0.0710228 7.79657 0.0824301 7.82299L0.18123 8.04213C0.715138 9.14837 1.40161 10.1742 2.22056 11.0897C3.7241 12.7605 6.09783 14.4667 9.5001 14.4667V13.2ZM0.63343 7.49999L1.22116 7.73559L1.22623 7.72546C1.25714 7.64822 1.29094 7.57216 1.32756 7.49746C1.80876 6.50277 2.42652 5.58017 3.16296 4.75639C4.50943 3.25919 6.56903 1.79999 9.5001 1.79999V0.533325C6.09783 0.533325 3.72283 2.24079 2.22056 3.91026C1.40159 4.82574 0.715124 5.85161 0.18123 6.95786C0.1352 7.05656 0.0912788 7.15622 0.0494967 7.25679L0.0469634 7.26186V7.26313H0.0444301L0.63343 7.49999ZM9.5001 1.79999C12.4312 1.79999 14.4895 3.25919 15.8372 4.75639C16.5736 5.58019 17.1914 6.50279 17.6726 7.49746C17.708 7.57274 17.7418 7.64876 17.774 7.72546L17.779 7.73432L18.3668 7.49999L18.9545 7.26439V7.26186L18.9507 7.25679C18.9411 7.22964 18.9301 7.203 18.9178 7.17699C18.7687 6.84296 18.6039 6.51621 18.4238 6.19786C17.9594 5.37856 17.4081 4.61162 16.7796 3.91026C15.2761 2.24079 12.9024 0.533325 9.5001 0.533325V1.79999ZM18.3668 7.49999C18.1706 7.42217 17.9747 7.34364 17.779 7.26439L17.7752 7.27453L17.7562 7.31886L17.6726 7.50252C17.1914 8.4972 16.5736 9.4198 15.8372 10.2436C14.4908 11.7408 12.4312 13.2 9.5001 13.2V14.4667C12.9024 14.4667 15.2774 12.7592 16.7796 11.091C17.5987 10.1751 18.2852 9.14883 18.819 8.04213C18.865 7.94341 18.9089 7.84374 18.9507 7.74319L18.9532 7.73813V7.73686L18.9545 7.73559L18.3668 7.49999ZM9.5001 9.39999C8.99619 9.39999 8.51291 9.19981 8.15659 8.84349C7.80027 8.48718 7.6001 8.0039 7.6001 7.49999H6.33343C6.33343 8.33984 6.66706 9.1453 7.26093 9.73916C7.85479 10.333 8.66024 10.6667 9.5001 10.6667V9.39999ZM11.4001 7.49999C11.4001 8.0039 11.1999 8.48718 10.8436 8.84349C10.4873 9.19981 10.004 9.39999 9.5001 9.39999V10.6667C10.3399 10.6667 11.1454 10.333 11.7393 9.73916C12.3331 9.1453 12.6668 8.33984 12.6668 7.49999H11.4001ZM9.5001 5.59999C10.004 5.59999 10.4873 5.80017 10.8436 6.15649C11.1999 6.51281 11.4001 6.99608 11.4001 7.49999H12.6668C12.6668 6.66014 12.3331 5.85469 11.7393 5.26082C11.1454 4.66695 10.3399 4.33333 9.5001 4.33333V5.59999ZM9.5001 4.33333C8.66024 4.33333 7.85479 4.66695 7.26093 5.26082C6.66706 5.85469 6.33343 6.66014 6.33343 7.49999H7.6001C7.6001 6.99608 7.80027 6.51281 8.15659 6.15649C8.51291 5.80017 8.99619 5.59999 9.5001 5.59999V4.33333Z" fill="black"/>
</svg>
