<svg width="38" height="38" viewBox="0 0 38 38" fill="none" xmlns="http://www.w3.org/2000/svg">
<path d="M29.2444 29.1054L29.4133 27.8669L29.2444 29.1054ZM8.75542 29.1054L8.58653 27.8669L8.75542 29.1054ZM6.4021 3.87398L6.6257 5.10382L6.4021 3.87398ZM31.5977 3.87398L31.3741 5.10382L31.5977 3.87398ZM12.3634 35.2041C11.6937 35.3716 11.2865 36.0502 11.4539 36.72C11.6213 37.3897 12.3 37.7969 12.9698 37.6295L12.3634 35.2041ZM15.1598 35.7935L14.8566 34.5808L14.8566 34.5808L15.1598 35.7935ZM22.8401 35.7935L23.1432 34.5808L23.1432 34.5808L22.8401 35.7935ZM25.0301 37.6295C25.6998 37.7969 26.3785 37.3897 26.5459 36.72C26.7134 36.0502 26.3062 35.3716 25.6364 35.2041L25.0301 37.6295ZM35.1666 9.64798V22.8449H37.6666V9.64798H35.1666ZM2.83325 22.8449V9.64798H0.333252V22.8449H2.83325ZM6.6257 5.10382C14.8081 3.61611 23.1917 3.61611 31.3741 5.10382L31.8213 2.64414C23.3432 1.10267 14.6566 1.10267 6.17849 2.64414L6.6257 5.10382ZM0.333252 22.8449C0.333252 27.4313 4.37999 30.9637 8.92431 30.344L8.58653 27.8669C5.54328 28.2819 2.83325 25.9163 2.83325 22.8449H0.333252ZM35.1666 22.8449C35.1666 25.9163 32.4566 28.2819 29.4133 27.8669L29.0755 30.344C33.6198 30.9637 37.6666 27.4313 37.6666 22.8449H35.1666ZM37.6666 9.64798C37.6666 6.20763 35.2062 3.25957 31.8213 2.64414L31.3741 5.10382C33.5703 5.50312 35.1666 7.41585 35.1666 9.64798H37.6666ZM2.83325 9.64798C2.83325 7.41585 4.42957 5.50312 6.6257 5.10382L6.17849 2.64414C2.79363 3.25957 0.333252 6.20763 0.333252 9.64798H2.83325ZM12.9698 37.6295L15.4629 37.0062L14.8566 34.5808L12.3634 35.2041L12.9698 37.6295ZM22.5369 37.0062L25.0301 37.6295L25.6364 35.2041L23.1432 34.5808L22.5369 37.0062ZM20.2499 34.8335V30.0835H17.7499V34.8335H20.2499ZM29.4133 27.8669C25.9582 27.3957 22.479 27.1602 18.9999 27.1602L18.9999 29.6602C22.3662 29.6602 25.7325 29.8881 29.0755 30.344L29.4133 27.8669ZM18.9999 27.1602C15.5208 27.1602 12.0417 27.3957 8.58653 27.8669L8.92431 30.344C12.2674 29.8881 15.6336 29.6602 18.9999 29.6602L18.9999 27.1602ZM20.2499 30.0835V28.4102H17.7499V30.0835H20.2499ZM15.4629 37.0062C16.6241 36.7159 17.812 36.5708 18.9999 36.5708L18.9999 34.0708C17.6084 34.0708 16.2168 34.2408 14.8566 34.5808L15.4629 37.0062ZM18.9999 36.5708C20.1878 36.5708 21.3758 36.7159 22.5369 37.0062L23.1432 34.5808C21.7831 34.2408 20.3915 34.0708 18.9999 34.0708L18.9999 36.5708ZM17.7499 34.8335V35.3208H20.2499V34.8335H17.7499Z" fill="#131313"/>
</svg>
