<svg width="45" height="46" viewBox="0 0 45 46" fill="none" xmlns="http://www.w3.org/2000/svg">
<path d="M9.28196 25.6923H6.64948C3.74172 25.6923 1.38452 28.0495 1.38452 30.9572V38.8547C1.38452 41.7624 3.74172 44.1196 6.64948 44.1196H9.28196C12.1897 44.1196 14.5469 41.7624 14.5469 38.8547V30.9572C14.5469 28.0495 12.1897 25.6923 9.28196 25.6923Z" stroke="black" stroke-width="2.25641" stroke-linecap="round" stroke-linejoin="round"/>
<path d="M38.2395 25.6923H35.607C32.6992 25.6923 30.342 28.0495 30.342 30.9572V38.8547C30.342 41.7624 32.6992 44.1196 35.607 44.1196H38.2395C41.1472 44.1196 43.5044 41.7624 43.5044 38.8547V30.9572C43.5044 28.0495 41.1472 25.6923 38.2395 25.6923Z" stroke="black" stroke-width="2.25641" stroke-linecap="round" stroke-linejoin="round"/>
<path d="M1.38452 30.9573V23.0598C1.38452 17.4744 3.60332 12.1178 7.5528 8.16828C11.5023 4.2188 16.8589 2 22.4444 2C28.0298 2 33.3864 4.2188 37.3359 8.16828C41.2854 12.1178 43.5042 17.4744 43.5042 23.0598V30.9573" stroke="black" stroke-width="2.25641" stroke-linecap="round" stroke-linejoin="round"/>
</svg>
