<svg width="19" height="15" viewBox="0 0 19 15" fill="none" xmlns="http://www.w3.org/2000/svg">
<path d="M0.633308 7.49987L0.0455747 7.26427C-0.0150288 7.41549 -0.0150288 7.58425 0.0455747 7.73547L0.633308 7.49987ZM18.3666 7.49987L18.9544 7.73547C19.015 7.58425 19.015 7.41549 18.9544 7.26427L18.3666 7.49987ZM9.49997 13.1999C6.56891 13.1999 4.51057 11.7407 3.16284 10.2435C2.4264 9.41969 1.80863 8.49709 1.32744 7.5024C1.29219 7.42707 1.2584 7.35105 1.22611 7.2744L1.22104 7.26554L0.633308 7.49987L0.0455747 7.73547V7.738L0.0493747 7.74307C0.0599215 7.76985 0.0709007 7.79645 0.082308 7.82287L0.181108 8.042C0.715016 9.14824 1.40148 10.1741 2.22044 11.0896C3.72397 12.7603 6.09771 14.4665 9.49997 14.4665V13.1999ZM0.633308 7.49987L1.22104 7.73547L1.22611 7.72534C1.25702 7.64809 1.29082 7.57204 1.32744 7.49734C1.80863 6.50265 2.4264 5.58005 3.16284 4.75627C4.50931 3.25907 6.56891 1.79987 9.49997 1.79987V0.533203C6.09771 0.533203 3.72271 2.24067 2.22044 3.91014C1.40147 4.82562 0.715002 5.85149 0.181108 6.95774C0.135078 7.05643 0.0911567 7.1561 0.0493747 7.25667L0.0468413 7.26174V7.263H0.044308L0.633308 7.49987ZM9.49997 1.79987C12.431 1.79987 14.4894 3.25907 15.8371 4.75627C16.5735 5.58007 17.1913 6.50267 17.6725 7.49734C17.7079 7.57262 17.7417 7.64864 17.7738 7.72534L17.7789 7.7342L18.3666 7.49987L18.9544 7.26427V7.26174L18.9506 7.25667C18.941 7.22952 18.93 7.20288 18.9176 7.17687C18.7686 6.84283 18.6038 6.51609 18.4236 6.19774C17.9592 5.37844 17.408 4.61149 16.7795 3.91014C15.276 2.24067 12.9022 0.533203 9.49997 0.533203V1.79987ZM18.3666 7.49987C18.1704 7.42205 17.9745 7.34351 17.7789 7.26427L17.7751 7.2744L17.7561 7.31874L17.6725 7.5024C17.1913 8.49707 16.5735 9.41967 15.8371 10.2435C14.4906 11.7407 12.431 13.1999 9.49997 13.1999V14.4665C12.9022 14.4665 15.2772 12.7591 16.7795 11.0909C17.5986 10.175 18.2851 9.1487 18.8188 8.042C18.8648 7.94329 18.9088 7.84362 18.9506 7.74307L18.9531 7.738V7.73674L18.9544 7.73547L18.3666 7.49987ZM9.49997 9.39987C8.99606 9.39987 8.51279 9.19969 8.15647 8.84337C7.80015 8.48705 7.59997 8.00378 7.59997 7.49987H6.33331C6.33331 8.33972 6.66694 9.14518 7.2608 9.73904C7.85467 10.3329 8.66012 10.6665 9.49997 10.6665V9.39987ZM11.4 7.49987C11.4 8.00378 11.1998 8.48705 10.8435 8.84337C10.4872 9.19969 10.0039 9.39987 9.49997 9.39987V10.6665C10.3398 10.6665 11.1453 10.3329 11.7391 9.73904C12.333 9.14518 12.6666 8.33972 12.6666 7.49987H11.4ZM9.49997 5.59987C10.0039 5.59987 10.4872 5.80005 10.8435 6.15637C11.1998 6.51269 11.4 6.99596 11.4 7.49987H12.6666C12.6666 6.66002 12.333 5.85456 11.7391 5.2607C11.1453 4.66683 10.3398 4.3332 9.49997 4.3332V5.59987ZM9.49997 4.3332C8.66012 4.3332 7.85467 4.66683 7.2608 5.2607C6.66694 5.85456 6.33331 6.66002 6.33331 7.49987H7.59997C7.59997 6.99596 7.80015 6.51269 8.15647 6.15637C8.51279 5.80005 8.99606 5.59987 9.49997 5.59987V4.3332Z" fill="white"/>
</svg>
