<?xml version="1.0" encoding="iso-8859-1"?>
<!-- Uploaded to: SVG Repo, www.svgrepo.com, Generator: SVG Repo Mixer Tools -->
<svg fill="#000000" height="800px" width="800px" version="1.1" id="Layer_1" xmlns="http://www.w3.org/2000/svg" xmlns:xlink="http://www.w3.org/1999/xlink" 
	 viewBox="0 0 503.822 503.822" xml:space="preserve">
<g transform="translate(0 -1)">
	<g>
		<path d="M444.96,1.107h-33.574c-4.636,0-8.393,3.758-8.393,8.393v394.492c0,27.755-22.606,50.361-50.361,50.361l-100.73,0.109
			c-27.754,0-50.352-22.598-50.352-50.361v-25.289c9.277,0,16.787-7.51,16.787-16.787V336.84h1.972
			c12.798,0,23.208-10.292,23.208-23.04v-14.403c0-11.382,9.373-20.648,20.984-20.648c20.841,0,37.771-16.739,37.771-37.443V132.754
			c0-17.099-13.98-30.93-31.182-30.93h-10.786V17.877c0-9.26-7.51-16.77-16.77-16.77H194.43C194.011,1.043,193.585,1,193.149,1
			c-0.431,0-0.851,0.044-1.264,0.107h-82.678c-9.26,0-16.77,7.51-16.77,16.77v83.947H81.65c-17.201,0-31.182,13.831-31.182,30.93
			v108.552c0,20.704,16.93,37.443,37.771,37.443c11.611,0,20.984,9.266,20.984,20.648V313.8c0,12.748,10.41,23.04,23.208,23.04
			h1.972v25.185c0,9.277,7.51,16.787,16.787,16.787v25.289c0,55.542,45.18,100.721,100.721,100.721l100.73-0.109
			c55.533,0,100.712-45.18,100.712-100.721V9.5C453.354,4.864,449.596,1.107,444.96,1.107z M243.518,101.824h-75.517v-8.389h25.18
			c4.636,0,8.393-3.758,8.393-8.393v-25.18c0-4.636-3.758-8.393-8.393-8.393h-25.18v-8.393h25.139c0.017,0,0.033,0.003,0.051,0.003
			c4.336-0.004,7.899-3.296,8.338-7.514c0.001-0.008,0.003-0.016,0.004-0.024c0.019-0.187,0.022-0.379,0.029-0.57
			c0.003-0.096,0.015-0.191,0.015-0.288c0-0.001,0-0.002,0-0.003s0-0.002,0-0.003l-0.017-16.781h41.959V101.824z M109.223,17.893
			h75.549l0.008,8.393h-25.197c-4.636,0-8.393,3.758-8.393,8.393c0,0.163,0.015,0.322,0.024,0.482v24.698
			c0,4.636,3.758,8.393,8.393,8.393h25.18v8.393h-25.18c-4.636,0-8.393,3.758-8.393,8.393v16.783h-41.992V17.893z M126.01,313.8
			v-14.403c0-20.697-16.932-37.435-37.771-37.435c-11.612,0-20.984-9.267-20.984-20.656V132.754c0-7.787,6.424-14.143,14.395-14.143
			h19.096c0.028,0,0.055,0.004,0.083,0.004h151.082c0.028,0,0.055-0.004,0.083-0.004h19.096c7.97,0,14.395,6.356,14.395,14.143
			v108.552c0,11.39-9.372,20.656-20.984,20.656c-20.839,0-37.77,16.738-37.77,37.435V313.8c0,3.434-2.852,6.253-6.421,6.253H132.43
			C128.861,320.053,126.01,317.234,126.01,313.8z M201.55,362.025h-8.393h-33.574h-8.393v-25.18h50.361V362.025z M436.567,403.992
			c0,46.271-37.664,83.934-83.934,83.934l-100.73,0.109c-46.262,0-83.925-37.664-83.925-83.934v-25.289h16.787v25.289
			c0,37.034,30.113,67.148,67.148,67.148l100.73-0.109c37.017,0,67.138-30.122,67.138-67.148V17.893h16.787V403.992z"/>
	</g>
</g>
</svg>