<?xml version="1.0" encoding="iso-8859-1"?>
<!-- Uploaded to: SVG Repo, www.svgrepo.com, Generator: SVG Repo Mixer Tools -->
<svg fill="#000000" height="800px" width="800px" version="1.1" id="Layer_1" xmlns="http://www.w3.org/2000/svg" xmlns:xlink="http://www.w3.org/1999/xlink" 
	 viewBox="0 0 511.999 511.999" xml:space="preserve">
<g>
	<g>
		<path d="M113.805,52.166c-33.988,0-61.639,27.652-61.639,61.639s27.652,61.638,61.639,61.638s61.638-27.65,61.638-61.638
			S147.793,52.166,113.805,52.166z M113.805,145.026c-17.216,0-31.222-14.005-31.222-31.221s14.007-31.222,31.222-31.222
			s31.221,14.006,31.221,31.222S131.021,145.026,113.805,145.026z"/>
	</g>
</g>
<g>
	<g>
		<path d="M113.805,95.126c-10.299,0-18.679,8.38-18.679,18.679s8.38,18.678,18.679,18.678s18.678-8.379,18.678-18.678
			S124.104,95.126,113.805,95.126z"/>
	</g>
</g>
<g>
	<g>
		<path d="M113.805,0C51.053,0,0,51.053,0,113.805v284.389c0,62.753,51.053,113.805,113.805,113.805S227.61,460.946,227.61,398.194
			v-4.303h164.626l119.763-119.763V0H113.805z M197.193,393.891v4.303c0,45.981-37.408,83.388-83.388,83.388
			s-83.388-37.407-83.388-83.388V191.163c20.797,22.403,50.481,36.447,83.388,36.447s62.591-14.045,83.388-36.447V393.891z
			 M113.805,197.193c-45.98,0-83.388-37.407-83.388-83.388s37.408-83.388,83.388-83.388c45.981,0,83.388,37.408,83.388,83.388
			S159.785,197.193,113.805,197.193z M401.146,341.966v-58.928h58.928L401.146,341.966z M481.582,252.622H370.729v110.854H227.61
			V113.805c0-1.005-0.014-2.007-0.041-3.006c-0.009-0.337-0.026-0.671-0.039-1.007c-0.023-0.659-0.045-1.32-0.079-1.976
			c-0.021-0.404-0.052-0.805-0.077-1.207c-0.036-0.588-0.072-1.176-0.118-1.762c-0.032-0.424-0.075-0.845-0.113-1.267
			c-0.05-0.56-0.098-1.119-0.157-1.677c-0.046-0.439-0.099-0.874-0.15-1.312c-0.063-0.537-0.124-1.076-0.194-1.611
			c-0.058-0.444-0.124-0.887-0.187-1.33c-0.075-0.525-0.149-1.049-0.231-1.572c-0.07-0.447-0.147-0.893-0.223-1.339
			c-0.087-0.513-0.174-1.026-0.268-1.537c-0.083-0.449-0.17-0.897-0.259-1.344c-0.098-0.503-0.199-1.005-0.303-1.506
			c-0.094-0.449-0.194-0.897-0.294-1.344c-0.111-0.495-0.223-0.991-0.34-1.482c-0.106-0.447-0.216-0.893-0.327-1.338
			c-0.123-0.488-0.247-0.976-0.376-1.461c-0.118-0.445-0.238-0.889-0.361-1.331c-0.134-0.482-0.271-0.962-0.411-1.441
			c-0.129-0.442-0.26-0.882-0.394-1.322c-0.145-0.476-0.294-0.95-0.445-1.422c-0.14-0.439-0.282-0.876-0.427-1.312
			c-0.156-0.469-0.317-0.936-0.48-1.402c-0.151-0.435-0.303-0.869-0.459-1.301c-0.167-0.463-0.34-0.924-0.513-1.383
			c-0.162-0.43-0.323-0.86-0.49-1.288c-0.179-0.457-0.364-0.912-0.549-1.368c-0.172-0.425-0.343-0.849-0.52-1.27
			c-0.191-0.454-0.387-0.904-0.584-1.356c-0.182-0.416-0.361-0.833-0.548-1.247c-0.203-0.451-0.413-0.898-0.622-1.346
			c-0.191-0.409-0.378-0.819-0.573-1.225c-0.216-0.45-0.441-0.896-0.663-1.342c-0.197-0.397-0.39-0.796-0.592-1.19
			c-0.235-0.46-0.48-0.916-0.721-1.373c-0.199-0.375-0.392-0.752-0.594-1.124c-0.266-0.491-0.541-0.975-0.815-1.461
			c-0.188-0.334-0.37-0.67-0.561-1.002c-0.461-0.802-0.933-1.598-1.413-2.388c-0.199-0.326-0.405-0.646-0.606-0.969
			c-0.294-0.472-0.585-0.947-0.886-1.414c-0.23-0.359-0.468-0.712-0.703-1.068c-0.281-0.427-0.56-0.856-0.847-1.28
			c-0.244-0.359-0.496-0.715-0.744-1.073c-0.287-0.412-0.571-0.825-0.863-1.235c-0.255-0.357-0.516-0.708-0.776-1.063
			c-0.294-0.402-0.586-0.804-0.885-1.201c-0.266-0.354-0.536-0.701-0.806-1.051c-0.301-0.391-0.601-0.782-0.907-1.169
			c-0.277-0.35-0.559-0.695-0.839-1.04c-0.307-0.379-0.615-0.759-0.928-1.135c-0.285-0.344-0.575-0.682-0.864-1.022
			c-0.317-0.373-0.636-0.745-0.958-1.115c-0.292-0.334-0.588-0.664-0.883-0.995c-0.327-0.366-0.657-0.733-0.99-1.094
			c-0.298-0.324-0.599-0.647-0.9-0.968c-0.34-0.36-0.68-0.72-1.024-1.078c-0.304-0.315-0.61-0.628-0.919-0.94
			c-0.35-0.355-0.702-0.707-1.055-1.057c-0.309-0.305-0.62-0.608-0.933-0.909c-0.362-0.35-0.727-0.698-1.094-1.041
			c-0.174-0.163-0.344-0.332-0.519-0.494h290.407V252.622z"/>
	</g>
</g>
</svg>