<?xml version="1.0" encoding="iso-8859-1"?>
<!-- Uploaded to: SVG Repo, www.svgrepo.com, Generator: SVG Repo Mixer Tools -->
<svg fill="#000000" height="800px" width="800px" version="1.1" id="Layer_1" xmlns="http://www.w3.org/2000/svg" xmlns:xlink="http://www.w3.org/1999/xlink" 
	 viewBox="0 0 512 512" xml:space="preserve">
<g>
	<g>
		<path d="M294.611,217.388c-9.774-9.773-22.767-15.154-36.588-15.154c-13.822,0-26.816,5.381-36.589,15.154
			c-20.176,20.176-20.176,53.004,0,73.179c9.773,9.774,22.767,15.156,36.589,15.156c13.822,0,26.816-5.381,36.589-15.155
			C314.788,270.392,314.788,237.564,294.611,217.388z M283.055,279.013c-6.687,6.688-15.578,10.371-25.034,10.371
			c-9.458,0-18.348-3.683-25.034-10.371c-13.805-13.804-13.805-36.265,0-50.069c6.687-6.688,15.577-10.37,25.034-10.37
			c9.457,0,18.348,3.682,25.034,10.37C296.861,242.748,296.861,265.209,283.055,279.013z"/>
	</g>
</g>
<g>
	<g>
		<path d="M403.05,73.003c-3.192-3.19-8.364-3.19-11.555,0l-23.11,23.109c-3.191,3.192-3.191,8.364,0,11.555
			c1.596,1.595,3.688,2.392,5.778,2.392s4.182-0.797,5.778-2.392l23.109-23.109C406.241,81.366,406.241,76.194,403.05,73.003z"/>
	</g>
</g>
<g>
	<g>
		<path d="M438.996,108.951c-3.19-3.19-8.363-3.191-11.554,0.001l-23.109,23.11c-3.191,3.19-3.191,8.363,0,11.554
			c1.595,1.595,3.686,2.392,5.777,2.392s4.182-0.797,5.778-2.393l23.109-23.11C442.188,117.314,442.188,112.14,438.996,108.951z"/>
	</g>
</g>
<g>
	<g>
		<path d="M512,116.012c0-2.167-0.861-4.244-2.392-5.778L401.766,2.393c-3.192-3.19-8.364-3.19-11.555,0L303.554,89.05
			L286.223,71.72c-1.533-1.532-3.61-2.392-5.778-2.392c-2.168,0-4.244,0.861-5.778,2.392L25.501,320.885
			c-13.948,13.949-15.68,35.56-5.196,51.414L2.393,390.211c-3.191,3.192-3.191,8.364,0,11.555l32.737,32.737l-17.332,17.332
			c-11.679,11.68-11.68,30.685,0,42.367c5.658,5.657,13.182,8.774,21.184,8.774c8.001,0,15.526-3.116,21.184-8.775l17.331-17.332
			l32.737,32.737c1.596,1.595,3.688,2.392,5.778,2.392c2.09,0,4.182-0.797,5.778-2.392l17.912-17.912
			c6.802,4.499,14.663,6.749,22.527,6.749c10.46,0,20.923-3.982,28.888-11.945l249.165-249.165c3.191-3.192,3.191-8.364,0-11.555
			l-17.334-17.334l86.66-86.655C511.139,120.256,512,118.179,512,116.012z M48.61,482.648c-5.308,5.311-13.949,5.31-19.258,0.001
			c-5.31-5.31-5.31-13.949,0-19.258l17.332-17.332l19.257,19.257L48.61,482.648z M422.95,231.556L179.561,474.944
			c-7.53,7.529-18.768,9.099-27.875,4.766l39.429-39.43c3.191-3.192,3.191-8.364,0-11.555c-3.192-3.19-8.364-3.19-11.555,0
			l-46.21,46.211c-0.015,0.015-17.339,17.339-17.339,17.339l-63.539-63.539c-0.021-0.021-32.748-32.748-32.748-32.748l17.322-17.322
			c0.018-0.02,172.833-172.832,172.833-172.832c12.86-12.861,29.957-19.943,48.143-19.943c18.185,0,35.283,7.082,48.142,19.943
			c12.861,12.86,19.943,29.957,19.943,48.142c0,18.186-7.082,35.284-19.943,48.143L202.669,405.616
			c-3.191,3.192-3.191,8.364,0,11.555c3.192,3.19,8.364,3.189,11.555,0L317.72,313.674c15.946-15.947,24.727-37.148,24.727-59.699
			c0-22.55-8.782-43.751-24.727-59.698c-15.947-15.946-37.148-24.727-59.698-24.727c-22.551,0-43.752,8.782-59.699,24.727
			L32.291,360.313c-4.333-9.107-2.763-20.345,4.766-27.873L280.445,89.051l17.322,17.322
			c0.019,0.018,107.815,107.815,107.815,107.815C405.648,214.254,422.95,231.556,422.95,231.556z M411.393,196.891l-96.284-96.285
			l80.88-80.881l96.288,96.288L411.393,196.891z"/>
	</g>
</g>
</svg>